<?xml version="1.0" encoding="UTF-8"?>
<svg xmlns="http://www.w3.org/2000/svg" width="2400" height="450" viewBox="0 0 2400 450" role="img" aria-label="Thin DevOps/SRE background">
  <defs>
    <!-- Same palette as current overlay -->
    <linearGradient id="bgGrad" x1="0" y1="0" x2="1" y2="1">
      <stop offset="0%" stop-color="#0B0D0F"/>
      <stop offset="100%" stop-color="#0E1114"/>
    </linearGradient>
    <linearGradient id="pulseBlue" x1="0" y1="0" x2="1" y2="1">
      <stop offset="0%" stop-color="#00A3FF" stop-opacity="0.65"/>
      <stop offset="100%" stop-color="#00A3FF" stop-opacity="0.15"/>
    </linearGradient>
    <linearGradient id="wireBlue" x1="0" y1="0" x2="0" y2="1">
      <stop offset="0%" stop-color="#00A3FF" stop-opacity="0.55"/>
      <stop offset="100%" stop-color="#00A3FF" stop-opacity="0.2"/>
    </linearGradient>
    <filter id="softGlow" x="-20%" y="-20%" width="140%" height="140%">
      <feGaussianBlur stdDeviation="16" result="b"/>
      <feMerge>
        <feMergeNode in="b"/>
        <feMergeNode in="SourceGraphic"/>
      </feMerge>
    </filter>
  </defs>

  <!-- Background -->
  <rect width="2400" height="450" fill="url(#bgGrad)"/>

  <!-- Subtle grid (lighter density for thin band) -->
  <g opacity="0.14" stroke="#2A2E33">
    <g>
      <!-- verticals -->
      <path d="M120 0v450M240 0v450M360 0v450M480 0v450M600 0v450M720 0v450M840 0v450M960 0v450M1080 0v450M1200 0v450M1320 0v450M1440 0v450M1560 0v450M1680 0v450M1800 0v450M1920 0v450M2040 0v450M2160 0v450M2280 0v450"/>
      <!-- horizontals -->
      <path d="M90 60h2220M90 180h2220M90 300h2220"/>
    </g>
  </g>

  <!-- Streamlined network line across middle -->
  <g stroke="url(#wireBlue)" stroke-width="2">
    <path d="M120,230 C420,210 760,250 1080,230 C1400,210 1820,250 2280,230" fill="none"/>
    <g fill="#00A3FF" opacity="0.65">
      <circle cx="120" cy="230" r="4"/>
      <circle cx="1080" cy="230" r="4"/>
      <circle cx="2280" cy="230" r="4"/>
    </g>
  </g>

  <!-- Compact DevOps infinity glyph -->
  <g transform="translate(1200,220) scale(0.65)" opacity="0.85">
    <path d="M-260,0c50,-120 210,-120 260,0c50,120 210,120 260,0" fill="none" stroke="url(#pulseBlue)" stroke-width="16" filter="url(#softGlow)"/>
    <path d="M-260,0c50,-120 210,-120 260,0c50,120 210,120 260,0" fill="none" stroke="#00A3FF" stroke-opacity="0.5" stroke-width="3"/>
  </g>

  <!-- Accent pulses tucked into corners -->
  <g opacity="0.32">
    <circle cx="260" cy="105" r="90" fill="url(#pulseBlue)" filter="url(#softGlow)"/>
    <circle cx="2140" cy="365" r="105" fill="url(#pulseBlue)" filter="url(#softGlow)"/>
  </g>

  <!-- Minimal silhouettes to avoid crowding -->
  <g stroke="#00A3FF" stroke-opacity="0.28" fill="none" stroke-width="2">
    <path d="M1780,150c-20,-50 -110,-50 -130,0c-45,-25 -100,8 -85,50h205c36,-8 45,-50 10,-50z"/>
    <g transform="translate(520,150) scale(1)">
      <circle cx="0" cy="0" r="20"/>
      <g stroke-linecap="round">
        <path d="M0,-36v-14"/>
        <path d="M0,36v14"/>
        <path d="M36,0h14"/>
        <path d="M-36,0h-14"/>
        <path d="M26,-26l10,-10"/>
        <path d="M26,26l10,10"/>
        <path d="M-26,-26l-10,-10"/>
        <path d="M-26,26l-10,10"/>
      </g>
    </g>
    <path d="M1320,160l34,20v40l-34,20l-34,-20v-40z"/>
  </g>
</svg>
