<?xml version="1.0" encoding="UTF-8"?>
<svg xmlns="http://www.w3.org/2000/svg" width="1200" height="630" viewBox="0 0 1200 630" role="img" aria-labelledby="title desc">
  <title>Avoiding DoH Detection and Blocking teaser</title>
  <desc>Shield and cloud icon with title text referencing DNS over HTTPS</desc>
  <!-- Background -->
  <rect width="1200" height="630" fill="#0E1418"/>

  <!-- Accent grid lines (subtle) -->
  <g opacity="0.08" stroke="#E3E7EA">
    <path d="M0 90 H1200M0 180 H1200M0 270 H1200M0 360 H1200M0 450 H1200M0 540 H1200"/>
    <path d="M100 0 V630M250 0 V630M400 0 V630M550 0 V630M700 0 V630M850 0 V630M1000 0 V630"/>
  </g>

  <!-- Title -->
  <text x="100" y="150" fill="#E3E7EA" font-size="60" font-weight="700" font-family="Inter, system-ui, -apple-system, Segoe UI, Roboto, Helvetica, Arial, sans-serif">Avoiding DoH Detection &amp; Blocking</text>
  <text x="100" y="200" fill="#FFB07C" font-size="28" font-weight="500" font-family="Inter, system-ui, -apple-system, Segoe UI, Roboto, Helvetica, Arial, sans-serif">Cloudflare Worker proxy ➜ NextDNS over TLS 1.3</text>

  <!-- Cloud icon -->
  <g transform="translate(840,350)">
    <ellipse cx="-80" cy="0" rx="90" ry="55" fill="#173F5E"/>
    <ellipse cx="-15" cy="-20" rx="110" ry="70" fill="#1F5F8B"/>
    <ellipse cx="70" cy="0" rx="95" ry="60" fill="#173F5E"/>
    <rect x="-160" y="0" width="320" height="70" rx="20" fill="#1F5F8B"/>
  </g>

  <!-- Shield icon -->
  <g transform="translate(420,370)">
    <path d="M0 -120 L90 -80 L90 0 C90 60 45 95 0 120 C-45 95 -90 60 -90 0 L-90 -80 Z" fill="#1B2227" stroke="#1F5F8B" stroke-width="6"/>
    <text x="0" y="-10" text-anchor="middle" fill="#FFB07C" font-size="52" font-weight="800" font-family="Inter, system-ui, -apple-system, Segoe UI, Roboto, Helvetica, Arial, sans-serif">DoH</text>
  </g>

  <!-- Connection line -->
  <path d="M510 370 C 620 350, 720 330, 840 350" stroke="#FFB07C" stroke-width="6" fill="none" stroke-dasharray="10 10"/>

  <!-- Footer stripe -->
  <rect x="0" y="600" width="1200" height="30" fill="#1F5F8B" opacity="0.6"/>
</svg>
